<svg xmlns="http://www.w3.org/2000/svg" xmlns:xlink="http://www.w3.org/1999/xlink" width="256" height="256" preserveAspectRatio="xMidYMid meet" viewBox="0 0 512 512" style="-ms-transform: rotate(360deg); -webkit-transform: rotate(360deg); transform: rotate(360deg);"><path fill="#363636" d="M104 320a88.067 88.067 0 1 0 75.607 43.02L260 282.627L425.373 448H448v-22.627L282.627 260L448 94.627V72h-22.627L260 237.373l-83.523-83.523a88.088 88.088 0 1 0-22.627 22.627L237.373 260l-78.919 78.919A87.57 87.57 0 0 0 104 320Zm0-160a56 56 0 1 1 56-56a56.063 56.063 0 0 1-56 56Zm0 304a56 56 0 1 1 56-56a56.063 56.063 0 0 1-56 56Z"/></svg>